<mxfile host="app.diagrams.net" agent="Mozilla/5.0 (X11; Linux x86_64; rv:129.0) Gecko/20100101 Firefox/129.0" version="24.7.8">
  <diagram name="Página-1" id="xiFtpDXhogNAx6U9Y78d">
    <mxGraphModel grid="0" page="1" gridSize="10" guides="1" tooltips="1" connect="1" arrows="1" fold="1" pageScale="1" pageWidth="827" pageHeight="1169" background="#FFFFFF" math="0" shadow="0">
      <root>
        <mxCell id="0" />
        <mxCell id="1" parent="0" />
        <mxCell id="aI0q5cENSNrbUibygOqg-1" style="edgeStyle=orthogonalEdgeStyle;rounded=0;orthogonalLoop=1;jettySize=auto;html=1;dashed=1;endArrow=none;endFill=0;" edge="1" parent="1" source="NMrlz7eO5dCt310WzX5v-2">
          <mxGeometry relative="1" as="geometry">
            <mxPoint x="103" y="573" as="targetPoint" />
            <Array as="points">
              <mxPoint x="100" y="220" />
              <mxPoint x="100" y="220" />
            </Array>
          </mxGeometry>
        </mxCell>
        <mxCell id="NMrlz7eO5dCt310WzX5v-2" value="Gestor" style="shape=umlActor;verticalLabelPosition=bottom;verticalAlign=top;html=1;" vertex="1" parent="1">
          <mxGeometry x="85" y="50" width="30" height="60" as="geometry" />
        </mxCell>
        <mxCell id="NMrlz7eO5dCt310WzX5v-3" value="" style="html=1;points=[[0,0,0,0,5],[0,0.09,0,0,0],[0,0.18,0,0,0],[0,0.27,0,0,0],[0,0.36,0,0,0],[0,0.45,0,0,0],[0,0.55,0,0,0],[0,0.64,0,0,0],[0,0.73,0,0,0],[0,0.82,0,0,0],[0,0.91,0,0,0],[0,1,0,0,-5],[1,0,0,0,5],[1,0.09,0,0,0],[1,0.18,0,0,0],[1,0.27,0,0,0],[1,0.36,0,0,0],[1,0.45,0,0,0],[1,0.55,0,0,0],[1,0.64,0,0,0],[1,0.73,0,0,0],[1,0.82,0,0,0],[1,0.91,0,0,0],[1,1,0,0,-5]];perimeter=orthogonalPerimeter;outlineConnect=0;targetShapes=umlLifeline;portConstraint=eastwest;newEdgeStyle={&quot;curved&quot;:0,&quot;rounded&quot;:0};" vertex="1" parent="1">
          <mxGeometry x="93" y="160" width="20" height="344" as="geometry" />
        </mxCell>
        <mxCell id="NMrlz7eO5dCt310WzX5v-6" value="Autentica" style="html=1;verticalAlign=bottom;endArrow=block;curved=0;rounded=0;exitX=1;exitY=0;exitDx=0;exitDy=5;exitPerimeter=0;" edge="1" parent="1" source="NMrlz7eO5dCt310WzX5v-3" target="NMrlz7eO5dCt310WzX5v-5">
          <mxGeometry width="80" relative="1" as="geometry">
            <mxPoint x="120" y="180" as="sourcePoint" />
            <mxPoint x="210" y="180" as="targetPoint" />
          </mxGeometry>
        </mxCell>
        <mxCell id="aI0q5cENSNrbUibygOqg-8" value="Sucesso" style="html=1;verticalAlign=bottom;endArrow=block;curved=0;rounded=0;dashed=1;align=right;" edge="1" parent="1" source="NMrlz7eO5dCt310WzX5v-5">
          <mxGeometry x="-0.7778" y="-5" width="80" relative="1" as="geometry">
            <mxPoint x="290" y="194.66000000000003" as="sourcePoint" />
            <mxPoint x="110" y="194.66000000000003" as="targetPoint" />
            <mxPoint as="offset" />
          </mxGeometry>
        </mxCell>
        <mxCell id="aI0q5cENSNrbUibygOqg-11" value="valida os dados" style="html=1;verticalAlign=bottom;endArrow=block;curved=0;rounded=0;entryX=0;entryY=0;entryDx=0;entryDy=5;entryPerimeter=0;" edge="1" parent="1" source="NMrlz7eO5dCt310WzX5v-8" target="aI0q5cENSNrbUibygOqg-23">
          <mxGeometry relative="1" as="geometry">
            <mxPoint x="431" y="270" as="sourcePoint" />
            <mxPoint x="570.9999999999998" y="269.9999999999999" as="targetPoint" />
          </mxGeometry>
        </mxCell>
        <mxCell id="aI0q5cENSNrbUibygOqg-15" value="&amp;nbsp;&amp;nbsp;&amp;nbsp;&amp;nbsp; Formulário Pessoa" style="shape=umlLifeline;perimeter=lifelinePerimeter;whiteSpace=wrap;html=1;container=0;dropTarget=0;collapsible=0;recursiveResize=0;outlineConnect=0;portConstraint=eastwest;newEdgeStyle={&quot;curved&quot;:0,&quot;rounded&quot;:0};participant=umlBoundary;size=60;" vertex="1" parent="1">
          <mxGeometry x="340" y="54" width="85" height="519" as="geometry" />
        </mxCell>
        <mxCell id="NMrlz7eO5dCt310WzX5v-8" value="" style="html=1;perimeter=orthogonalPerimeter;outlineConnect=0;targetShapes=umlLifeline;portConstraint=eastwest;newEdgeStyle={&quot;curved&quot;:0,&quot;rounded&quot;:0};points=[[0,0,0,0,0],[0,0.09,0,0,0],[0,0.18,0,0,0],[0,0.27,0,0,0],[0,0.36,0,0,0],[0,0.45,0,0,0],[0,0.55,0,0,0],[0,0.64,0,0,0],[0,0.73,0,0,0],[0,0.82,0,0,0],[0,0.91,0,0,0],[0,1,0,0,0],[0.25,0,0,0,0],[0.25,1,0,0,0],[0.5,0,0,0,0],[0.5,1,0,0,0],[0.75,0,0,0,0],[0.75,1,0,0,0],[1,0,0,0,0],[1,0.09,0,0,0],[1,0.18,0,0,0],[1,0.27,0,0,0],[1,0.36,0,0,0],[1,0.45,0,0,0],[1,0.5,0,0,0],[1,0.55,0,0,0],[1,0.64,0,0,0],[1,0.73,0,0,0],[1,0.82,0,0,0],[1,0.91,0,0,0],[1,1,0,0,0]];" vertex="1" parent="aI0q5cENSNrbUibygOqg-15">
          <mxGeometry x="32.5" y="171" width="20" height="281" as="geometry" />
        </mxCell>
        <mxCell id="aI0q5cENSNrbUibygOqg-16" value="&amp;nbsp;&amp;nbsp;&amp;nbsp; Tela login" style="shape=umlLifeline;perimeter=lifelinePerimeter;whiteSpace=wrap;html=1;container=1;dropTarget=0;collapsible=0;recursiveResize=0;outlineConnect=0;portConstraint=eastwest;newEdgeStyle={&quot;curved&quot;:0,&quot;rounded&quot;:0};participant=umlBoundary;size=60;" vertex="1" parent="1">
          <mxGeometry x="167.5" y="50" width="85" height="523" as="geometry" />
        </mxCell>
        <mxCell id="NMrlz7eO5dCt310WzX5v-5" value="" style="html=1;points=[[0,0,0,0,5],[0,0.09,0,0,0],[0,0.18,0,0,0],[0,0.27,0,0,0],[0,0.36,0,0,0],[0,0.45,0,0,0],[0,0.55,0,0,0],[0,0.64,0,0,0],[0,0.73,0,0,0],[0,0.82,0,0,0],[0,0.91,0,0,0],[0,1,0,0,-5],[1,0,0,0,5],[1,0.09,0,0,0],[1,0.18,0,0,0],[1,0.27,0,0,0],[1,0.36,0,0,0],[1,0.45,0,0,0],[1,0.55,0,0,0],[1,0.64,0,0,0],[1,0.73,0,0,0],[1,0.82,0,0,0],[1,0.91,0,0,0],[1,1,0,0,-5]];perimeter=orthogonalPerimeter;outlineConnect=0;targetShapes=umlLifeline;portConstraint=eastwest;newEdgeStyle={&quot;curved&quot;:0,&quot;rounded&quot;:0};" vertex="1" parent="1">
          <mxGeometry x="200" y="160" width="20" height="50" as="geometry" />
        </mxCell>
        <mxCell id="aI0q5cENSNrbUibygOqg-17" value="Abre Tela de cadastro de pessoa" style="html=1;verticalAlign=bottom;endArrow=block;curved=0;rounded=0;" edge="1" parent="1">
          <mxGeometry width="80" relative="1" as="geometry">
            <mxPoint x="113" y="238" as="sourcePoint" />
            <mxPoint x="372.5" y="238" as="targetPoint" />
          </mxGeometry>
        </mxCell>
        <mxCell id="aI0q5cENSNrbUibygOqg-22" value="&lt;div align=&quot;center&quot;&gt;Serviço Pessoa&lt;/div&gt;" style="shape=umlLifeline;perimeter=lifelinePerimeter;whiteSpace=wrap;html=1;container=1;dropTarget=0;collapsible=0;recursiveResize=0;outlineConnect=0;portConstraint=eastwest;newEdgeStyle={&quot;curved&quot;:0,&quot;rounded&quot;:0};participant=umlControl;size=70;align=center;" vertex="1" parent="1">
          <mxGeometry x="500" y="50" width="80" height="526" as="geometry" />
        </mxCell>
        <mxCell id="aI0q5cENSNrbUibygOqg-23" value="" style="html=1;points=[[0,0,0,0,5],[0,0.09,0,0,0],[0,0.18,0,0,0],[0,0.27,0,0,0],[0,0.36,0,0,0],[0,0.45,0,0,0],[0,0.55,0,0,0],[0,0.64,0,0,0],[0,0.73,0,0,0],[0,0.82,0,0,0],[0,0.91,0,0,0],[0,1,0,0,-5],[1,0,0,0,5],[1,0.33,0,0,0],[1,0.67,0,0,0],[1,1,0,0,-5]];perimeter=orthogonalPerimeter;outlineConnect=0;targetShapes=umlLifeline;portConstraint=eastwest;newEdgeStyle={&quot;curved&quot;:0,&quot;rounded&quot;:0};" vertex="1" parent="aI0q5cENSNrbUibygOqg-22">
          <mxGeometry x="30" y="194" width="20" height="50" as="geometry" />
        </mxCell>
        <mxCell id="aI0q5cENSNrbUibygOqg-26" value="retorna validação" style="html=1;verticalAlign=bottom;endArrow=open;dashed=1;endSize=8;curved=0;rounded=0;exitX=0;exitY=0.91;exitDx=0;exitDy=0;exitPerimeter=0;" edge="1" parent="1" source="aI0q5cENSNrbUibygOqg-23" target="NMrlz7eO5dCt310WzX5v-8">
          <mxGeometry relative="1" as="geometry">
            <mxPoint x="590" y="280" as="sourcePoint" />
            <mxPoint x="510" y="280" as="targetPoint" />
          </mxGeometry>
        </mxCell>
        <mxCell id="aI0q5cENSNrbUibygOqg-27" value="&lt;div align=&quot;center&quot;&gt;&amp;nbsp;&amp;nbsp;&amp;nbsp; Database&lt;/div&gt;" style="shape=umlLifeline;perimeter=lifelinePerimeter;whiteSpace=wrap;html=1;container=1;dropTarget=0;collapsible=0;recursiveResize=0;outlineConnect=0;portConstraint=eastwest;newEdgeStyle={&quot;curved&quot;:0,&quot;rounded&quot;:0};participant=umlBoundary;size=70;align=center;" vertex="1" parent="1">
          <mxGeometry x="630" y="50" width="80" height="522" as="geometry" />
        </mxCell>
        <mxCell id="aI0q5cENSNrbUibygOqg-29" value="" style="html=1;points=[[0,0,0,0,5],[0,1,0,0,-5],[1,0,0,0,5],[1,1,0,0,-5]];perimeter=orthogonalPerimeter;outlineConnect=0;targetShapes=umlLifeline;portConstraint=eastwest;newEdgeStyle={&quot;curved&quot;:0,&quot;rounded&quot;:0};" vertex="1" parent="aI0q5cENSNrbUibygOqg-27">
          <mxGeometry x="30" y="199" width="20" height="40" as="geometry" />
        </mxCell>
        <mxCell id="aI0q5cENSNrbUibygOqg-30" value="consulta se existe" style="html=1;verticalAlign=bottom;endArrow=block;curved=0;rounded=0;exitX=1;exitY=0.33;exitDx=0;exitDy=0;exitPerimeter=0;" edge="1" parent="1" source="aI0q5cENSNrbUibygOqg-23" target="aI0q5cENSNrbUibygOqg-29">
          <mxGeometry relative="1" as="geometry">
            <mxPoint x="740" y="245" as="sourcePoint" />
          </mxGeometry>
        </mxCell>
        <mxCell id="aI0q5cENSNrbUibygOqg-31" value="retorna" style="html=1;verticalAlign=bottom;endArrow=open;dashed=1;endSize=8;curved=0;rounded=0;entryX=1;entryY=0.67;entryDx=0;entryDy=0;entryPerimeter=0;" edge="1" parent="1" source="aI0q5cENSNrbUibygOqg-29" target="aI0q5cENSNrbUibygOqg-23">
          <mxGeometry relative="1" as="geometry">
            <mxPoint x="740" y="315" as="targetPoint" />
          </mxGeometry>
        </mxCell>
        <mxCell id="aI0q5cENSNrbUibygOqg-32" value="&lt;div&gt;alt &lt;br&gt;&lt;/div&gt;" style="shape=umlFrame;whiteSpace=wrap;html=1;pointerEvents=0;points=[[0,0.5,0,0,0],[1,0.5,0,0,0]];width=40;height=27;" vertex="1" parent="1">
          <mxGeometry x="20" y="317" width="721.5" height="200" as="geometry" />
        </mxCell>
        <mxCell id="aI0q5cENSNrbUibygOqg-37" value="" style="endArrow=none;html=1;rounded=0;exitX=0;exitY=0.5;exitDx=0;exitDy=0;exitPerimeter=0;entryX=1;entryY=0.5;entryDx=0;entryDy=0;entryPerimeter=0;" edge="1" parent="1" source="aI0q5cENSNrbUibygOqg-32" target="aI0q5cENSNrbUibygOqg-32">
          <mxGeometry width="50" height="50" relative="1" as="geometry">
            <mxPoint x="491" y="372" as="sourcePoint" />
            <mxPoint x="541" y="322" as="targetPoint" />
          </mxGeometry>
        </mxCell>
        <mxCell id="aI0q5cENSNrbUibygOqg-38" value="Dados válidos" style="text;html=1;align=center;verticalAlign=middle;whiteSpace=wrap;rounded=0;" vertex="1" parent="1">
          <mxGeometry x="20" y="343" width="60" height="30" as="geometry" />
        </mxCell>
        <mxCell id="aI0q5cENSNrbUibygOqg-39" value="Dados inválidos" style="text;html=1;align=center;verticalAlign=middle;whiteSpace=wrap;rounded=0;" vertex="1" parent="1">
          <mxGeometry x="20" y="419" width="60" height="30" as="geometry" />
        </mxCell>
        <mxCell id="aI0q5cENSNrbUibygOqg-40" value="solicita salvar os dados" style="html=1;verticalAlign=bottom;endArrow=block;curved=0;rounded=0;entryX=0;entryY=0.18;entryDx=0;entryDy=0;entryPerimeter=0;" edge="1" parent="1" source="NMrlz7eO5dCt310WzX5v-8" target="aI0q5cENSNrbUibygOqg-45">
          <mxGeometry width="80" relative="1" as="geometry">
            <mxPoint x="381" y="341" as="sourcePoint" />
            <mxPoint x="401" y="340.12408759124094" as="targetPoint" />
          </mxGeometry>
        </mxCell>
        <mxCell id="aI0q5cENSNrbUibygOqg-45" value="" style="html=1;points=[[0,0,0,0,5],[0,0.09,0,0,0],[0,0.18,0,0,0],[0,0.27,0,0,0],[0,0.36,0,0,0],[0,0.45,0,0,0],[0,0.55,0,0,0],[0,0.64,0,0,0],[0,0.73,0,0,0],[0,0.82,0,0,0],[0,0.91,0,0,0],[0,1,0,0,-5],[1,0,0,0,5],[1,0.33,0,0,0],[1,0.67,0,0,0],[1,1,0,0,-5]];perimeter=orthogonalPerimeter;outlineConnect=0;targetShapes=umlLifeline;portConstraint=eastwest;newEdgeStyle={&quot;curved&quot;:0,&quot;rounded&quot;:0};" vertex="1" parent="1">
          <mxGeometry x="530" y="333" width="20" height="50" as="geometry" />
        </mxCell>
        <mxCell id="aI0q5cENSNrbUibygOqg-46" value="salva dados" style="html=1;verticalAlign=bottom;endArrow=block;curved=0;rounded=0;exitX=1;exitY=0.33;exitDx=0;exitDy=0;exitPerimeter=0;" edge="1" parent="1" target="aI0q5cENSNrbUibygOqg-27">
          <mxGeometry relative="1" as="geometry">
            <mxPoint x="550" y="349" as="sourcePoint" />
            <mxPoint x="660" y="349" as="targetPoint" />
          </mxGeometry>
        </mxCell>
        <mxCell id="aI0q5cENSNrbUibygOqg-47" value="retorna" style="html=1;verticalAlign=bottom;endArrow=open;dashed=1;endSize=8;curved=0;rounded=0;entryX=1;entryY=0.67;entryDx=0;entryDy=0;entryPerimeter=0;" edge="1" parent="1" source="aI0q5cENSNrbUibygOqg-27">
          <mxGeometry relative="1" as="geometry">
            <mxPoint x="550" y="374" as="targetPoint" />
            <mxPoint x="660" y="374" as="sourcePoint" />
          </mxGeometry>
        </mxCell>
        <mxCell id="aI0q5cENSNrbUibygOqg-49" value="retorna" style="html=1;verticalAlign=bottom;endArrow=open;dashed=1;endSize=8;curved=0;rounded=0;" edge="1" parent="1" target="NMrlz7eO5dCt310WzX5v-8">
          <mxGeometry relative="1" as="geometry">
            <mxPoint x="410" y="382.47" as="targetPoint" />
            <mxPoint x="530" y="382.47" as="sourcePoint" />
          </mxGeometry>
        </mxCell>
        <mxCell id="aI0q5cENSNrbUibygOqg-50" value="retorna mensagem de erro" style="html=1;verticalAlign=bottom;endArrow=open;dashed=1;endSize=8;curved=0;rounded=0;" edge="1" parent="1" target="NMrlz7eO5dCt310WzX5v-3">
          <mxGeometry relative="1" as="geometry">
            <mxPoint x="371" y="486" as="sourcePoint" />
            <mxPoint x="291" y="486" as="targetPoint" />
          </mxGeometry>
        </mxCell>
        <mxCell id="aI0q5cENSNrbUibygOqg-51" value="retorna cadastro com sucesso" style="html=1;verticalAlign=bottom;endArrow=open;dashed=1;endSize=8;curved=0;rounded=0;" edge="1" parent="1">
          <mxGeometry relative="1" as="geometry">
            <mxPoint x="371" y="402" as="sourcePoint" />
            <mxPoint x="113" y="402" as="targetPoint" />
          </mxGeometry>
        </mxCell>
        <mxCell id="aI0q5cENSNrbUibygOqg-53" value="Diagramda de sequência - cadastro de pessoa" style="text;align=center;fontStyle=1;verticalAlign=middle;spacingLeft=3;spacingRight=3;strokeColor=none;rotatable=0;points=[[0,0.5],[1,0.5]];portConstraint=eastwest;html=1;" vertex="1" parent="1">
          <mxGeometry x="354" y="11" width="80" height="26" as="geometry" />
        </mxCell>
      </root>
    </mxGraphModel>
  </diagram>
</mxfile>
